<?xml version="1.0" encoding="UTF-8"?>
<svg xmlns="http://www.w3.org/2000/svg" xmlns:xlink="http://www.w3.org/1999/xlink" width="128pt" height="128pt" viewBox="0 0 128 128" version="1.1">
<g id="surface1">
<path style=" stroke:none;fill-rule:nonzero;fill:rgb(84.313725%,49.803922%,29.019608%);fill-opacity:1;" d="M 124.757812 125.90625 L 3.242188 125.90625 C 2.484375 125.90625 1.867188 125.289062 1.867188 124.527344 L 1.867188 118.113281 C 1.867188 117.355469 2.484375 116.738281 3.242188 116.738281 L 124.757812 116.738281 C 125.515625 116.738281 126.132812 117.355469 126.132812 118.113281 L 126.132812 124.527344 C 126.132812 125.289062 125.515625 125.90625 124.757812 125.90625 Z M 124.757812 125.90625 "/>
<path style=" stroke:none;fill-rule:nonzero;fill:rgb(78.431373%,42.745098%,21.176471%);fill-opacity:1;" d="M 126.128906 118.109375 L 126.128906 124.535156 C 126.128906 125.292969 125.515625 125.90625 124.761719 125.90625 L 119.777344 125.90625 C 120.535156 125.90625 121.148438 125.292969 121.148438 124.535156 L 121.148438 118.109375 C 121.148438 117.351562 120.535156 116.738281 119.777344 116.738281 L 124.761719 116.738281 C 125.515625 116.738281 126.128906 117.351562 126.128906 118.109375 Z M 126.128906 118.109375 "/>
<path style=" stroke:none;fill-rule:nonzero;fill:rgb(75.686275%,91.372549%,68.627451%);fill-opacity:1;" d="M 96.210938 2.097656 C 81.796875 2.070312 70.058594 13.785156 70.058594 28.195312 C 70.058594 38.296875 75.796875 47.058594 84.191406 51.394531 C 84.601562 51.609375 84.832031 52.0625 84.765625 52.519531 C 84.503906 54.285156 83.644531 58.496094 81.167969 61.035156 C 80.574219 61.648438 81.125 62.671875 81.96875 62.515625 C 86.25 61.71875 92.75 59.742188 95.15625 54.921875 C 95.34375 54.539062 95.726562 54.296875 96.152344 54.296875 L 96.160156 54.296875 C 110.574219 54.296875 122.257812 42.609375 122.257812 28.195312 C 122.257812 13.796875 110.601562 2.121094 96.210938 2.097656 Z M 96.210938 2.097656 "/>
<path style=" stroke:none;fill-rule:nonzero;fill:rgb(67.843137%,88.235294%,58.039216%);fill-opacity:1;" d="M 122.257812 28.195312 C 122.257812 42.613281 110.574219 54.296875 96.160156 54.296875 L 96.152344 54.296875 C 95.726562 54.296875 95.34375 54.539062 95.15625 54.921875 C 92.75 59.742188 86.25 61.71875 81.964844 62.515625 C 81.125 62.671875 80.574219 61.648438 81.167969 61.035156 C 82.589844 59.578125 83.476562 57.566406 84.027344 55.785156 C 87.179688 54.589844 90.265625 52.691406 91.765625 49.6875 C 91.953125 49.304688 92.335938 49.0625 92.761719 49.0625 L 92.769531 49.0625 C 107.183594 49.0625 118.867188 37.378906 118.867188 22.960938 C 118.867188 18.851562 117.917969 14.964844 116.226562 11.507812 C 119.996094 16.03125 122.257812 21.851562 122.257812 28.195312 Z M 122.257812 28.195312 "/>
<path style=" stroke:none;fill-rule:nonzero;fill:rgb(34.901961%,42.352941%,46.27451%);fill-opacity:1;" d="M 51.8125 96.023438 L 25.007812 96.023438 C 18.277344 96.023438 12.820312 90.570312 12.820312 83.839844 L 12.820312 39.789062 C 12.820312 25.65625 24.277344 14.199219 38.410156 14.199219 C 52.542969 14.199219 64 25.65625 64 39.789062 L 64 83.839844 C 64 90.570312 58.542969 96.023438 51.8125 96.023438 Z M 51.8125 96.023438 "/>
<path style=" stroke:none;fill-rule:nonzero;fill:rgb(27.45098%,35.294118%,38.039216%);fill-opacity:1;" d="M 63.996094 39.789062 L 63.996094 83.839844 C 63.996094 90.570312 58.542969 96.023438 51.8125 96.023438 L 46.832031 96.023438 C 53.5625 96.023438 59.015625 90.570312 59.015625 83.839844 L 59.015625 39.789062 C 59.015625 32.722656 56.148438 26.324219 51.523438 21.695312 C 47.441406 17.613281 41.992188 14.90625 35.917969 14.320312 C 36.738281 14.238281 37.570312 14.199219 38.410156 14.199219 C 45.476562 14.199219 51.871094 17.0625 56.503906 21.695312 C 61.132812 26.324219 63.996094 32.722656 63.996094 39.789062 Z M 63.996094 39.789062 "/>
<path style=" stroke:none;fill-rule:nonzero;fill:rgb(100%,80.784314%,74.901961%);fill-opacity:1;" d="M 58.570312 45.425781 L 58.570312 56.996094 C 58.570312 68.128906 49.542969 77.152344 38.410156 77.152344 C 27.277344 77.152344 18.25 68.128906 18.25 56.996094 L 18.25 40.339844 L 38.894531 36.183594 Z M 58.570312 45.425781 "/>
<path style=" stroke:none;fill-rule:nonzero;fill:rgb(100%,69.019608%,61.960784%);fill-opacity:1;" d="M 58.570312 45.425781 L 58.570312 56.996094 C 58.570312 68.128906 49.542969 77.15625 38.410156 77.15625 C 37.644531 77.15625 36.886719 77.113281 36.144531 77.027344 C 46.238281 75.867188 54.089844 66.867188 54.089844 55.9375 L 54.089844 45.347656 Z M 58.570312 45.425781 "/>
<path style=" stroke:none;fill-rule:nonzero;fill:rgb(34.901961%,42.352941%,46.27451%);fill-opacity:1;" d="M 19.648438 35.203125 L 17.121094 40.671875 L 16.179688 45.425781 L 18.25 45.425781 C 31.21875 46.1875 38.410156 38.257812 38.410156 38.257812 L 38.410156 35.203125 Z M 19.648438 35.203125 "/>
<path style=" stroke:none;fill-rule:nonzero;fill:rgb(34.901961%,42.352941%,46.27451%);fill-opacity:1;" d="M 53.863281 35.203125 L 38.410156 35.203125 L 38.410156 38.253906 C 38.410156 38.257812 45.601562 46.1875 58.570312 45.425781 L 56.945312 40.671875 Z M 53.863281 35.203125 "/>
<path style=" stroke:none;fill-rule:nonzero;fill:rgb(100%,80.784314%,74.901961%);fill-opacity:1;" d="M 18.25 57.664062 L 15.703125 57.664062 C 13.546875 57.664062 11.796875 55.917969 11.796875 53.761719 L 11.796875 53.738281 C 11.796875 51.582031 13.546875 49.835938 15.703125 49.835938 L 18.25 49.835938 Z M 18.25 57.664062 "/>
<path style=" stroke:none;fill-rule:nonzero;fill:rgb(100%,80.784314%,74.901961%);fill-opacity:1;" d="M 58.570312 57.664062 L 61.117188 57.664062 C 63.273438 57.664062 65.023438 55.917969 65.023438 53.761719 L 65.023438 53.738281 C 65.023438 51.582031 63.273438 49.835938 61.117188 49.835938 L 58.570312 49.835938 Z M 58.570312 57.664062 "/>
<path style=" stroke:none;fill-rule:nonzero;fill:rgb(62.352941%,67.45098%,72.941176%);fill-opacity:1;" d="M 71.078125 116.738281 L 5.742188 116.738281 L 5.742188 74.644531 C 5.742188 73.882812 6.355469 73.265625 7.117188 73.265625 L 69.703125 73.265625 C 70.464844 73.265625 71.078125 73.882812 71.078125 74.644531 Z M 71.078125 116.738281 "/>
<path style=" stroke:none;fill-rule:nonzero;fill:rgb(55.294118%,61.176471%,65.882353%);fill-opacity:1;" d="M 71.078125 74.636719 L 71.078125 116.738281 L 66.097656 116.738281 L 66.097656 74.636719 C 66.097656 73.882812 65.484375 73.265625 64.726562 73.265625 L 69.707031 73.265625 C 70.464844 73.265625 71.078125 73.882812 71.078125 74.636719 Z M 71.078125 74.636719 "/>
<path style=" stroke:none;fill-rule:nonzero;fill:rgb(96.078431%,97.254902%,97.647059%);fill-opacity:1;" d="M 42.640625 95.003906 C 42.640625 98.101562 40.128906 100.613281 37.03125 100.613281 C 33.929688 100.613281 31.417969 98.101562 31.417969 95.003906 C 31.417969 91.902344 33.929688 89.390625 37.03125 89.390625 C 40.128906 89.390625 42.640625 91.902344 42.640625 95.003906 Z M 42.640625 95.003906 "/>
<path style=" stroke:none;fill-rule:nonzero;fill:rgb(90.980392%,92.941176%,94.901961%);fill-opacity:1;" d="M 42.640625 95 C 42.640625 98.101562 40.128906 100.613281 37.027344 100.613281 C 34.496094 100.613281 32.351562 98.929688 31.65625 96.621094 C 32.058594 96.71875 32.476562 96.765625 32.902344 96.765625 C 36.003906 96.765625 38.515625 94.253906 38.515625 91.15625 C 38.515625 90.589844 38.429688 90.046875 38.273438 89.53125 C 40.773438 90.097656 42.640625 92.332031 42.640625 95 Z M 42.640625 95 "/>
<path style=" stroke:none;fill-rule:nonzero;fill:rgb(0%,0%,0%);fill-opacity:1;" d="M 82.828125 52.789062 C 82.542969 54.382812 81.738281 57.777344 79.832031 59.730469 C 78.996094 60.589844 78.8125 61.878906 79.378906 62.941406 C 79.867188 63.851562 80.800781 64.398438 81.800781 64.398438 C 81.96875 64.398438 82.136719 64.382812 82.308594 64.351562 C 91.207031 62.703125 95 59.070312 96.613281 56.160156 C 111.828125 55.917969 124.128906 43.464844 124.128906 28.195312 C 124.128906 12.804688 111.605469 0.257812 96.210938 0.226562 C 96.195312 0.226562 96.179688 0.226562 96.160156 0.226562 C 93.09375 0.226562 90.078125 0.722656 87.195312 1.703125 C 86.214844 2.035156 85.691406 3.09375 86.023438 4.070312 C 86.355469 5.046875 87.417969 5.570312 88.394531 5.242188 C 90.890625 4.394531 93.503906 3.964844 96.160156 3.964844 L 96.207031 3.964844 C 109.542969 3.988281 120.390625 14.859375 120.390625 28.195312 C 120.390625 41.558594 109.519531 52.429688 96.152344 52.429688 C 95.015625 52.429688 93.996094 53.0625 93.484375 54.085938 C 91.832031 57.394531 87.632812 59.167969 84.199219 60.09375 C 85.707031 57.535156 86.347656 54.582031 86.613281 52.792969 C 86.796875 51.542969 86.167969 50.316406 85.046875 49.738281 C 76.957031 45.554688 71.929688 37.300781 71.925781 28.195312 C 71.925781 20.671875 75.351562 13.691406 81.320312 9.054688 C 82.132812 8.421875 82.28125 7.246094 81.648438 6.433594 C 81.015625 5.617188 79.839844 5.472656 79.027344 6.105469 C 72.140625 11.457031 68.191406 19.507812 68.191406 28.195312 C 68.191406 38.511719 73.785156 47.882812 82.828125 52.789062 Z M 82.828125 52.789062 "/>
<path style=" stroke:none;fill-rule:nonzero;fill:rgb(0%,0%,0%);fill-opacity:1;" d="M 31.21875 49.75 C 30.1875 49.75 29.347656 50.585938 29.347656 51.617188 L 29.347656 54.765625 C 29.347656 55.800781 30.1875 56.636719 31.21875 56.636719 C 32.25 56.636719 33.085938 55.800781 33.085938 54.765625 L 33.085938 51.617188 C 33.085938 50.585938 32.25 49.75 31.21875 49.75 Z M 31.21875 49.75 "/>
<path style=" stroke:none;fill-rule:nonzero;fill:rgb(0%,0%,0%);fill-opacity:1;" d="M 45.601562 49.75 C 44.570312 49.75 43.734375 50.585938 43.734375 51.617188 L 43.734375 54.765625 C 43.734375 55.800781 44.570312 56.636719 45.601562 56.636719 C 46.632812 56.636719 47.472656 55.800781 47.472656 54.765625 L 47.472656 51.617188 C 47.46875 50.585938 46.632812 49.75 45.601562 49.75 Z M 45.601562 49.75 "/>
<path style=" stroke:none;fill-rule:nonzero;fill:rgb(0%,0%,0%);fill-opacity:1;" d="M 39.519531 63.683594 C 39.238281 63.980469 38.859375 64.144531 38.449219 64.144531 C 38.027344 64.144531 37.625 63.960938 37.347656 63.644531 C 36.671875 62.863281 35.492188 62.78125 34.710938 63.457031 C 33.933594 64.132812 33.851562 65.3125 34.527344 66.09375 C 35.515625 67.230469 36.945312 67.882812 38.449219 67.882812 C 39.882812 67.882812 41.269531 67.28125 42.246094 66.234375 C 42.953125 65.480469 42.914062 64.296875 42.160156 63.59375 C 41.40625 62.890625 40.222656 62.929688 39.519531 63.683594 Z M 39.519531 63.683594 "/>
<path style=" stroke:none;fill-rule:nonzero;fill:rgb(0%,0%,0%);fill-opacity:1;" d="M 124.761719 114.871094 L 72.949219 114.871094 L 72.949219 74.636719 C 72.949219 72.851562 71.496094 71.398438 69.707031 71.398438 L 65.867188 71.398438 L 65.867188 57.046875 C 66.511719 56.117188 66.890625 54.988281 66.890625 53.773438 L 66.890625 53.726562 C 66.890625 52.511719 66.511719 51.382812 65.867188 50.453125 L 65.867188 39.789062 C 65.867188 24.648438 53.550781 12.332031 38.410156 12.332031 C 23.269531 12.332031 10.953125 24.648438 10.953125 39.789062 L 10.953125 50.453125 C 10.308594 51.382812 9.929688 52.511719 9.929688 53.726562 L 9.929688 53.773438 C 9.929688 54.988281 10.308594 56.117188 10.953125 57.046875 L 10.953125 71.398438 L 7.113281 71.398438 C 5.324219 71.398438 3.871094 72.851562 3.871094 74.636719 L 3.871094 86.878906 C 3.871094 87.910156 4.707031 88.746094 5.742188 88.746094 C 6.773438 88.746094 7.609375 87.910156 7.609375 86.878906 L 7.609375 75.132812 L 69.210938 75.132812 L 69.210938 114.871094 L 7.609375 114.871094 L 7.609375 95.339844 C 7.609375 94.304688 6.773438 93.46875 5.742188 93.46875 C 4.707031 93.46875 3.871094 94.304688 3.871094 95.339844 L 3.871094 114.871094 L 3.238281 114.871094 C 1.453125 114.871094 0 116.324219 0 118.109375 L 0 124.535156 C 0 126.320312 1.453125 127.773438 3.238281 127.773438 L 124.761719 127.773438 C 126.546875 127.773438 128 126.320312 128 124.535156 L 128 118.109375 C 128 116.324219 126.546875 114.871094 124.761719 114.871094 Z M 14.691406 39.789062 C 14.691406 26.707031 25.332031 16.066406 38.410156 16.066406 C 51.488281 16.066406 62.128906 26.707031 62.128906 39.789062 L 62.128906 48.054688 C 61.804688 48 61.472656 47.96875 61.132812 47.96875 L 60.4375 47.96875 L 60.4375 45.425781 C 60.4375 44.367188 59.515625 43.5 58.460938 43.5625 C 46.613281 44.257812 40.070312 37.300781 39.789062 36.996094 C 39.390625 36.558594 38.722656 36.3125 38.132812 36.386719 C 37.550781 36.457031 37.089844 36.953125 36.691406 37.335938 C 36.464844 37.558594 36.226562 37.769531 35.988281 37.976562 C 34.152344 39.546875 32.03125 40.789062 29.800781 41.710938 C 26.1875 43.199219 22.253906 43.789062 18.359375 43.5625 C 17.820312 43.53125 17.285156 43.742188 16.910156 44.125 C 16.488281 44.558594 16.382812 45.207031 16.382812 45.792969 L 16.382812 47.96875 L 15.6875 47.96875 C 15.347656 47.96875 15.015625 48 14.691406 48.054688 Z M 13.667969 53.773438 L 13.667969 53.726562 C 13.667969 52.609375 14.574219 51.703125 15.6875 51.703125 L 16.382812 51.703125 L 16.382812 55.796875 L 15.6875 55.796875 C 14.574219 55.796875 13.667969 54.890625 13.667969 53.773438 Z M 14.691406 71.398438 L 14.691406 59.445312 C 15.015625 59.5 15.347656 59.53125 15.6875 59.53125 L 16.535156 59.53125 C 17.054688 64.039062 18.933594 68.136719 21.761719 71.398438 Z M 49.667969 71.398438 L 27.160156 71.398438 C 22.882812 68.050781 20.125 62.855469 20.117188 57.019531 L 20.117188 49.835938 C 20.117188 49.832031 20.117188 49.832031 20.117188 49.828125 L 20.117188 47.34375 C 29.542969 47.3125 35.792969 43.039062 38.410156 40.8125 C 41.027344 43.039062 47.277344 47.3125 56.703125 47.34375 L 56.703125 56.992188 C 56.703125 62.835938 53.945312 68.046875 49.667969 71.398438 Z M 62.128906 71.398438 L 55.058594 71.398438 C 57.886719 68.136719 59.765625 64.039062 60.285156 59.53125 L 61.132812 59.53125 C 61.472656 59.53125 61.804688 59.5 62.128906 59.445312 Z M 63.152344 53.773438 C 63.152344 54.890625 62.246094 55.796875 61.132812 55.796875 L 60.4375 55.796875 L 60.4375 51.703125 L 61.132812 51.703125 C 62.246094 51.703125 63.152344 52.609375 63.152344 53.726562 Z M 124.261719 124.035156 L 3.738281 124.035156 L 3.738281 118.605469 L 124.261719 118.605469 Z M 124.261719 124.035156 "/>
<path style=" stroke:none;fill-rule:nonzero;fill:rgb(0%,0%,0%);fill-opacity:1;" d="M 44.507812 95.003906 C 44.507812 90.878906 41.152344 87.523438 37.03125 87.523438 C 32.90625 87.523438 29.550781 90.878906 29.550781 95.003906 C 29.550781 99.125 32.90625 102.480469 37.03125 102.480469 C 41.152344 102.480469 44.507812 99.125 44.507812 95.003906 Z M 33.289062 95.003906 C 33.289062 92.9375 34.964844 91.261719 37.03125 91.261719 C 39.09375 91.261719 40.773438 92.9375 40.773438 95.003906 C 40.773438 97.066406 39.09375 98.742188 37.03125 98.742188 C 34.964844 98.742188 33.289062 97.066406 33.289062 95.003906 Z M 33.289062 95.003906 "/>
<path style=" stroke:none;fill-rule:nonzero;fill:rgb(0%,0%,0%);fill-opacity:1;" d="M 83.710938 20.84375 L 108.605469 20.84375 C 109.636719 20.84375 110.476562 20.007812 110.476562 18.976562 C 110.476562 17.945312 109.636719 17.109375 108.605469 17.109375 L 83.710938 17.109375 C 82.679688 17.109375 81.84375 17.945312 81.84375 18.976562 C 81.84375 20.007812 82.679688 20.84375 83.710938 20.84375 Z M 83.710938 20.84375 "/>
<path style=" stroke:none;fill-rule:nonzero;fill:rgb(0%,0%,0%);fill-opacity:1;" d="M 110.472656 26.855469 C 110.472656 25.824219 109.636719 24.988281 108.605469 24.988281 L 83.710938 24.988281 C 82.679688 24.988281 81.84375 25.824219 81.84375 26.855469 C 81.84375 27.886719 82.679688 28.726562 83.710938 28.726562 L 108.605469 28.726562 C 109.636719 28.726562 110.472656 27.886719 110.472656 26.855469 Z M 110.472656 26.855469 "/>
<path style=" stroke:none;fill-rule:nonzero;fill:rgb(0%,0%,0%);fill-opacity:1;" d="M 83.710938 32.867188 C 82.679688 32.867188 81.84375 33.703125 81.84375 34.738281 C 81.84375 35.769531 82.679688 36.605469 83.710938 36.605469 L 98.648438 36.605469 C 99.679688 36.605469 100.515625 35.769531 100.515625 34.738281 C 100.515625 33.703125 99.679688 32.867188 98.648438 32.867188 Z M 83.710938 32.867188 "/>
</g>
</svg>
